<svg xmlns="http://www.w3.org/2000/svg" viewBox="0 0 675 130.54" aria-hidden="true">
  <path fill="#f8f7f5" d="M309.83,35.82c-4.31,0-8.53,1.14-12.65,3.42-4.13,2.28-7.6,5.45-10.43,9.51-.47.67-.89,1.37-1.29,2.07v-13.15h-23.08v91.03h23.08v-39.14c0-5.05.15-8.89.46-11.54.31-2.65.71-4.83,1.2-6.55,1.11-3.08,2.55-5.54,4.34-7.39,1.78-1.85,3.81-3.2,6.09-4.06,2.28-.86,4.64-1.29,7.11-1.29,2.09,0,4.18.31,6.28.92,2.09.62,3.81,1.29,5.17,2.03l11.08-20.68c-2.95-1.85-5.82-3.17-8.59-3.97-2.77-.8-5.7-1.2-8.77-1.2Z"/>
  <path fill="#f8f7f5" d="M405.14,45.24c-7.02-6.28-16.8-9.42-29.36-9.42-7.76,0-14.99,1.14-21.7,3.42-6.71,2.28-13.27,6-19.66,11.17l11.63,15.69c3.81-3.44,8.22-6.12,13.2-8.03,4.99-1.91,9.88-2.86,14.68-2.86,5.78,0,10.37,1.32,13.76,3.97,3.38,2.65,5.08,6.68,5.08,12.09v2.22h-26.22c-4.31,0-8.34.37-12.09,1.11-3.76.74-7.17,2.03-10.25,3.88-3.57,1.97-6.43,4.83-8.59,8.59-2.16,3.76-3.23,8.28-3.23,13.57,0,5.91,1.51,11.14,4.52,15.7,3.01,4.55,7.14,8.06,12.37,10.52,5.23,2.46,11.17,3.69,17.82,3.69,4.68,0,9.11-.92,13.29-2.77,4.18-1.85,7.91-4.77,11.17-8.77.51-.63,1-1.3,1.47-1.99l1.58,11.68h21.05v-57.42c0-11.08-3.51-19.76-10.52-26.03ZM392.77,91.21c0,4.06-1.02,7.66-3.05,10.8-2.03,3.14-4.74,5.6-8.12,7.39-3.39,1.79-7.11,2.68-11.17,2.68-4.56,0-8.19-1.04-10.89-3.14-2.71-2.09-4.06-4.86-4.06-8.31,0-1.6.31-3.05.92-4.34.61-1.29,1.54-2.37,2.77-3.23,1.35-1.11,2.98-1.81,4.89-2.12,1.91-.31,3.85-.46,5.82-.46h22.9v.74Z"/>
  <path fill="#f8f7f5" d="M555.6,15.96h-23.27v21.7h-16.62v17.91h16.62v46.35c0,7.02,1.26,12.62,3.79,16.8,2.52,4.19,5.88,7.2,10.06,9.05,4.18,1.85,8.74,2.77,13.66,2.77,2.58,0,5.17-.22,7.75-.65,2.59-.43,5.17-1.14,7.76-2.12v-17.54c-1.85.49-3.54.86-5.08,1.11-1.54.25-2.93.37-4.16.37-4.19,0-6.99-1.35-8.4-4.06-1.42-2.71-2.12-6.71-2.12-12v-40.07h19.76v-17.91h-19.76V15.96Z"/>
  <path fill="#f8f7f5" d="M669.1,58.62c-3.94-7.08-9.36-12.65-16.25-16.71-6.89-4.06-14.71-6.09-23.45-6.09s-16.77,2.03-23.73,6.09c-6.96,4.06-12.4,9.63-16.34,16.71-3.94,7.08-5.91,15.23-5.91,24.47s2,17.26,6,24.46c4,7.2,9.45,12.83,16.34,16.89,6.89,4.06,14.77,6.09,23.63,6.09s16.55-2.06,23.45-6.19c6.89-4.12,12.31-9.75,16.25-16.89,3.94-7.14,5.91-15.26,5.91-24.37s-1.97-17.39-5.91-24.47ZM649.25,97.68c-1.79,4.06-4.37,7.2-7.75,9.42-3.39,2.22-7.42,3.32-12.09,3.32s-8.93-1.11-12.37-3.32c-3.45-2.22-6.09-5.35-7.94-9.42-1.85-4.06-2.77-8.92-2.77-14.59s.92-10.68,2.77-14.68c1.85-4,4.49-7.08,7.94-9.23,3.44-2.15,7.57-3.23,12.37-3.23s8.71,1.08,12.09,3.23c3.38,2.16,5.97,5.23,7.75,9.23,1.78,4,2.68,8.89,2.68,14.68s-.89,10.52-2.68,14.59Z"/>
  <polygon fill="#f8f7f5" points="200.15 46.59 200.16 46.59 200.16 21.42 262.38 21.42 262.38 0 176.34 0 176.34 128.7 200.16 128.7 200.16 77.26 200.15 77.26 200.15 73.3 237.56 73.3 237.56 52.07 200.15 52.07 200.15 46.59"/>
  <path fill="#f8f7f5" d="M494.15,42.47c-6.77-4.43-14.77-6.65-24-6.65-7.39,0-13.82,1.32-19.3,3.97-5.48,2.65-10.09,6.19-13.85,10.62-3.76,4.43-6.55,9.48-8.4,15.14-.75,2.31-1.34,4.65-1.79,7.02h23.33c.24-.87.5-1.73.8-2.58,1.48-4.18,3.81-7.6,7.02-10.25,3.2-2.65,7.26-3.97,12.19-3.97,5.29,0,9.45,1.39,12.46,4.15,3.01,2.77,5.26,6.31,6.74,10.62l19.94-7.94c-3.32-8.98-8.37-15.69-15.14-20.13Z"/>
  <path fill="#f8f7f5" d="M482.61,106.45c-3.02,2.77-7.17,4.15-12.46,4.15-4.92,0-8.99-1.32-12.19-3.97-3.2-2.65-5.54-6.09-7.02-10.34-.29-.82-.54-1.66-.77-2.49h-23.36c.45,2.38,1.03,4.72,1.78,7.02,1.85,5.66,4.64,10.71,8.4,15.14,3.75,4.43,8.37,7.97,13.85,10.62,5.48,2.65,11.91,3.97,19.3,3.97,9.23,0,17.23-2.22,24-6.65,6.77-4.43,11.82-11.2,15.14-20.31l-19.94-7.94c-1.48,4.43-3.72,8.03-6.74,10.8Z"/>
  <rect fill="#f8f7f5" y="39.94" width="25.33" height="50.66"/>
  <rect fill="#f8f7f5" x="25.33" y="90.6" width="50.66" height="25.33"/>
  <rect fill="#f8f7f5" x="25.33" y="14.61" width="25.33" height="25.33"/>
  <rect fill="#f8f7f5" x="75.99" y="65.27" width="25.33" height="25.33"/>
  <rect fill="#f55e1d" x="75.99" y="14.61" width="25.33" height="25.33"/>
</svg>
